<?xml version="1.0" encoding="utf-8"?>
<!-- Generator: Adobe Illustrator 26.0.2, SVG Export Plug-In . SVG Version: 6.00 Build 0)  -->
<svg version="1.1" id="레이어_1" xmlns="http://www.w3.org/2000/svg" xmlns:xlink="http://www.w3.org/1999/xlink" x="0px"
	 y="0px" viewBox="0 0 100 65" style="enable-background:new 0 0 100 65;" xml:space="preserve">
<style type="text/css">
	.st0{fill:#004898;}
	.st1{fill:url(#SVGID_1_);}
	.st2{fill:url(#SVGID_00000100346250203803140260000006515478785895757223_);}
	.st3{fill:url(#SVGID_00000119795809832193769270000012452587615404175551_);}
</style>
<g>
	<path class="st0" d="M55.12,0.32H10.18L0.71,33.52h0.01h11.07c2.39-4.58,7.2-7.7,12.72-7.67c7.49,0.05,13.73,5.98,14.13,13.46
		c0.44,8.2-6.11,15.02-14.22,15.02c-6.29,0-11.63-4.1-13.51-9.76H0.24C2.36,56,12.41,64.7,24.46,64.68
		C37.99,64.65,49.18,53.3,49,39.76c-0.17-13.41-11.14-24.27-24.59-24.27c-2.57,0-5.04,0.4-7.37,1.13l1.69-5.95h23.82
		c3.21-4.38,7.57-7.88,12.63-10.03C55.35,0.57,55.3,0.32,55.12,0.32z"/>
	<g>
		<path class="st0" d="M47.14,60.86h-0.29h-0.59L45,64.61h1l0.23-0.82h1.22l0.23,0.82h1l-1.26-3.74H47.14z M46.43,63.1l0.4-1.42
			h0.02l0.41,1.42H46.43z"/>
		<polygon class="st0" points="52.17,63.02 52.15,63.02 50.65,60.86 49.84,60.86 49.84,64.61 50.8,64.61 50.8,62.43 50.81,62.43 
			52.32,64.61 53.11,64.61 53.11,60.86 52.17,60.86 		"/>
		<polygon class="st0" points="56.8,63.02 56.78,63.02 55.29,60.86 54.48,60.86 54.48,64.61 55.43,64.61 55.43,62.43 55.45,62.43 
			56.95,64.61 57.75,64.61 57.75,60.86 56.8,60.86 		"/>
		<rect x="59.11" y="60.86" class="st0" width="0.95" height="3.74"/>
		<polygon class="st0" points="63.03,63.68 63.01,63.68 62.29,60.86 61.22,60.86 62.41,64.61 63.63,64.61 64.81,60.86 63.74,60.86 
					"/>
		<polygon class="st0" points="65.97,64.61 68.53,64.61 68.53,63.84 66.92,63.84 66.92,63.09 68.44,63.09 68.44,62.37 66.92,62.37 
			66.92,61.63 68.53,61.63 68.53,60.86 65.97,60.86 		"/>
		<path class="st0" d="M72.73,62.76c0.12-0.19,0.17-0.41,0.17-0.65v-0.01c0-0.26-0.06-0.49-0.17-0.67
			c-0.11-0.18-0.27-0.33-0.48-0.42c-0.21-0.1-0.47-0.15-0.77-0.15h-1.62v3.74h0.95v-1.29h0.44c0.01,0,0.02,0,0.02,0
			c0.01,0,0.01,0,0.02,0l0.64,1.29h1.07l-0.75-1.43C72.46,63.09,72.62,62.95,72.73,62.76z M71.93,62.11c0,0.16-0.05,0.28-0.15,0.38
			c-0.1,0.09-0.23,0.14-0.4,0.14h-0.56v-1.05h0.56c0.17,0,0.3,0.05,0.4,0.14C71.88,61.82,71.93,61.95,71.93,62.11L71.93,62.11z"/>
		<path class="st0" d="M76.04,62.38l-0.38-0.07c-0.2-0.04-0.35-0.09-0.44-0.15c-0.09-0.06-0.14-0.14-0.14-0.24v0
			c0-0.07,0.02-0.13,0.06-0.19c0.04-0.06,0.1-0.1,0.19-0.13c0.08-0.03,0.18-0.05,0.3-0.05c0.11,0,0.22,0.02,0.3,0.05
			c0.09,0.03,0.16,0.08,0.21,0.14c0.05,0.06,0.09,0.13,0.1,0.21l0,0.03h0.88l0-0.05c-0.01-0.23-0.08-0.42-0.2-0.59
			c-0.12-0.17-0.29-0.3-0.51-0.39c-0.22-0.09-0.49-0.14-0.8-0.14c-0.29,0-0.54,0.05-0.76,0.15c-0.22,0.1-0.4,0.24-0.53,0.41
			c-0.13,0.18-0.19,0.39-0.19,0.63v0c0,0.29,0.1,0.52,0.29,0.7c0.19,0.18,0.47,0.31,0.84,0.38l0.38,0.08
			c0.22,0.04,0.38,0.09,0.47,0.15c0.09,0.06,0.14,0.14,0.14,0.24v0c0,0.08-0.02,0.15-0.08,0.21c-0.05,0.06-0.12,0.1-0.21,0.14
			c-0.09,0.03-0.2,0.05-0.33,0.05c-0.12,0-0.23-0.02-0.33-0.05c-0.1-0.03-0.18-0.08-0.24-0.14c-0.06-0.06-0.1-0.13-0.12-0.21
			l-0.01-0.03h-0.88l0,0.05c0.02,0.24,0.09,0.44,0.22,0.61c0.13,0.17,0.31,0.3,0.54,0.39c0.23,0.09,0.5,0.13,0.81,0.13
			c0.33,0,0.61-0.05,0.85-0.15c0.24-0.1,0.41-0.24,0.54-0.42c0.12-0.18,0.19-0.4,0.19-0.65v0c0-0.3-0.09-0.54-0.28-0.71
			C76.73,62.58,76.43,62.45,76.04,62.38z"/>
		<path class="st0" d="M80.25,60.86h-0.29h-0.59l-1.26,3.74h1l0.23-0.82h1.22l0.23,0.82h1l-1.26-3.74H80.25z M79.54,63.1l0.4-1.42
			h0.02l0.41,1.42H79.54z"/>
		<path class="st0" d="M85.82,62.76c0.12-0.19,0.17-0.41,0.17-0.65v-0.01c0-0.26-0.06-0.49-0.17-0.67
			c-0.11-0.18-0.27-0.33-0.48-0.42c-0.21-0.1-0.47-0.15-0.77-0.15h-1.62v3.74h0.95v-1.29h0.44c0.01,0,0.02,0,0.02,0
			c0.01,0,0.01,0,0.02,0l0.64,1.29h1.07l-0.75-1.43C85.55,63.09,85.7,62.95,85.82,62.76z M85.02,62.11c0,0.16-0.05,0.28-0.15,0.38
			c-0.1,0.09-0.23,0.14-0.4,0.14H83.9v-1.05h0.56c0.17,0,0.3,0.05,0.4,0.14C84.97,61.82,85.02,61.95,85.02,62.11L85.02,62.11z"/>
		<polygon class="st0" points="89.33,60.86 88.59,62.42 88.57,62.42 87.83,60.86 86.81,60.86 88.1,63.32 88.1,64.61 89.06,64.61 
			89.06,63.32 90.35,60.86 		"/>
	</g>
	<g>
		<g>
			<path class="st0" d="M92.06,10.36c-0.28-0.24-0.42-0.65-0.42-1.21v-2.7h-0.73V5.39h0.73V4.11h1.44v1.28h0.96v1.07h-0.96V9
				c0,0.24,0.05,0.41,0.16,0.51c0.11,0.1,0.27,0.14,0.49,0.14c0.07,0,0.12,0,0.17-0.01c0.05,0,0.09-0.01,0.14-0.02v1.05
				c-0.08,0.01-0.18,0.03-0.29,0.04c-0.12,0.01-0.25,0.02-0.4,0.02C92.77,10.73,92.34,10.61,92.06,10.36z"/>
			<path class="st0" d="M94.86,3.57h1.43v2.72h0.03c0.14-0.33,0.34-0.58,0.61-0.75c0.27-0.17,0.6-0.26,0.99-0.26
				c0.38,0,0.71,0.08,0.98,0.25c0.27,0.17,0.48,0.4,0.63,0.71c0.15,0.31,0.22,0.67,0.22,1.09v3.29h-1.43V7.63
				c0-0.36-0.09-0.65-0.26-0.86c-0.17-0.21-0.42-0.31-0.75-0.31c-0.21,0-0.39,0.05-0.54,0.15c-0.15,0.1-0.28,0.24-0.36,0.41
				c-0.09,0.17-0.13,0.38-0.13,0.6v3h-1.43V3.57z"/>
		</g>
	</g>
	<g>
		<linearGradient id="SVGID_1_" gradientUnits="userSpaceOnUse" x1="82.6211" y1="5.4608" x2="76.9726" y2="57.2082">
			<stop  offset="0.06" style="stop-color:#00ACB0"/>
			<stop  offset="0.1058" style="stop-color:#009CAC"/>
			<stop  offset="0.2116" style="stop-color:#007EA5"/>
			<stop  offset="0.3229" style="stop-color:#00669F"/>
			<stop  offset="0.4408" style="stop-color:#00559B"/>
			<stop  offset="0.5696" style="stop-color:#004B99"/>
			<stop  offset="0.73" style="stop-color:#004898"/>
		</linearGradient>
		<path class="st1" d="M84.78,38.95c0.01,0.17,0.03,0.34,0.04,0.5c0,0.05,0.01,0.09,0.01,0.14c0.04,0.55,0.06,1.1,0.07,1.66
			c-0.01-0.32-0.02-0.64-0.04-0.95c0.1,2.94-0.55,5.8-2.03,8.37c-0.67,1.17-1.49,2.21-2.42,3.14c-2.51,2.51-5.88,4.12-9.65,4.78
			c4.93-0.66,9.45-2.58,13.23-5.43c2.04-1.54,3.86-3.35,5.41-5.37c2.95-3.56,4.99-8.31,5.62-13.65c0,0-0.01,0.01-0.01,0.01
			c0.07-0.52,0.11-1.05,0.15-1.58c0.01-0.19,0.03-0.39,0.03-0.58c0.01-0.12,0.01-0.24,0.01-0.35c0.01-0.34,0.02-0.68,0.02-1.03
			c0-0.34-0.01-0.69-0.02-1.03c0-0.12-0.01-0.24-0.01-0.35c-0.01-0.19-0.02-0.39-0.03-0.58c-0.39-5.7-2.48-10.94-5.76-15.21
			c-3.37-4.06-7.92-6.55-12.94-6.55c-3.2,0-6.22,1.02-8.86,2.81c-0.04,0.03-0.08,0.05-0.11,0.08c-0.16,0.11-0.31,0.23-0.47,0.34
			C76.96,15.03,83.75,26.18,84.78,38.95z"/>
		
			<linearGradient id="SVGID_00000013170350004230621170000006515790817308182684_" gradientUnits="userSpaceOnUse" x1="79.1945" y1="53.7844" x2="37.9241" y2="23.1732">
			<stop  offset="0.06" style="stop-color:#48B070"/>
			<stop  offset="0.1159" style="stop-color:#3A9C78"/>
			<stop  offset="0.22" style="stop-color:#257E83"/>
			<stop  offset="0.3295" style="stop-color:#15668C"/>
			<stop  offset="0.4454" style="stop-color:#095593"/>
			<stop  offset="0.5722" style="stop-color:#024B97"/>
			<stop  offset="0.73" style="stop-color:#004898"/>
		</linearGradient>
		<path style="fill:url(#SVGID_00000013170350004230621170000006515790817308182684_);" d="M49.18,38.86
			c-0.15-0.07-0.3-0.15-0.46-0.22c-0.04-0.02-0.08-0.04-0.12-0.06c-0.49-0.24-0.98-0.5-1.47-0.76c0.28,0.15,0.56,0.3,0.85,0.44
			c-2.59-1.39-4.75-3.38-6.23-5.95c-0.67-1.17-1.17-2.39-1.51-3.66c-0.92-3.43-0.63-7.15,0.68-10.75c-1.9,4.59-2.49,9.47-1.91,14.18
			c0.31,2.53,0.97,5.02,1.94,7.37c1.6,4.33,4.7,8.48,9.01,11.69c0-0.01,0-0.01,0-0.02c0.42,0.32,0.85,0.62,1.29,0.92
			c0.16,0.11,0.32,0.22,0.49,0.32c0.1,0.06,0.2,0.13,0.3,0.19c0.29,0.18,0.58,0.36,0.88,0.53s0.6,0.34,0.9,0.5
			c0.1,0.06,0.21,0.11,0.31,0.16c0.17,0.09,0.35,0.17,0.52,0.26c5.14,2.51,10.71,3.33,16.06,2.62c5.2-0.89,9.64-3.59,12.15-7.93
			c1.6-2.77,2.23-5.9,2-9.08c0-0.05-0.01-0.09-0.01-0.14c-0.02-0.19-0.04-0.39-0.06-0.58C73.81,44.04,60.76,44.35,49.18,38.86z"/>
		
			<linearGradient id="SVGID_00000007389292264782072660000007877726191908145587_" gradientUnits="userSpaceOnUse" x1="39.2186" y1="26.6315" x2="86.9379" y2="5.686">
			<stop  offset="0.06" style="stop-color:#2BAEE5"/>
			<stop  offset="0.111" style="stop-color:#249CD8"/>
			<stop  offset="0.2158" style="stop-color:#177EC1"/>
			<stop  offset="0.3262" style="stop-color:#0D66AF"/>
			<stop  offset="0.4431" style="stop-color:#0655A2"/>
			<stop  offset="0.5709" style="stop-color:#014B9A"/>
			<stop  offset="0.73" style="stop-color:#004898"/>
		</linearGradient>
		<path style="fill:url(#SVGID_00000007389292264782072660000007877726191908145587_);" d="M67.06,8.07
			c0.14-0.1,0.28-0.19,0.42-0.28c0.04-0.03,0.08-0.05,0.11-0.08c0.46-0.31,0.92-0.6,1.4-0.89c-0.27,0.17-0.54,0.34-0.81,0.51
			c2.49-1.55,5.3-2.42,8.27-2.42c1.35,0,2.66,0.18,3.93,0.52c3.43,0.92,6.51,3.03,8.97,5.97c-3.03-3.94-6.96-6.89-11.32-8.74
			c-2.35-1-4.83-1.67-7.36-2c-4.55-0.78-9.69-0.17-14.63,1.96c0.01,0,0.01,0,0.02,0.01c-0.48,0.2-0.97,0.42-1.44,0.66
			c-0.17,0.09-0.35,0.17-0.52,0.26c-0.1,0.05-0.21,0.11-0.31,0.16c-0.3,0.16-0.6,0.32-0.9,0.5S52.29,4.54,52,4.72
			c-0.1,0.06-0.2,0.12-0.3,0.19c-0.16,0.1-0.32,0.21-0.49,0.32c-4.74,3.19-8.24,7.62-10.3,12.59c-1.83,4.95-1.71,10.14,0.8,14.49
			c1.6,2.77,3.99,4.88,6.86,6.27c0.04,0.02,0.08,0.04,0.12,0.06c0.17,0.08,0.35,0.16,0.53,0.24C50.26,26.8,56.52,15.35,67.06,8.07z"
			/>
	</g>
	<path class="st0" d="M62.36,24.22c0.21-0.09,0.37-0.22,0.48-0.38c0.11-0.16,0.17-0.36,0.17-0.58v0c0-0.28-0.09-0.5-0.26-0.66
		c-0.17-0.16-0.45-0.28-0.82-0.36l-0.39-0.08c-0.22-0.04-0.38-0.11-0.48-0.19c-0.1-0.08-0.15-0.18-0.15-0.31v0
		c0-0.1,0.03-0.18,0.08-0.25c0.06-0.07,0.13-0.13,0.24-0.17c0.1-0.04,0.22-0.06,0.36-0.06c0.13,0,0.25,0.02,0.36,0.06
		c0.1,0.04,0.19,0.1,0.25,0.17c0.06,0.07,0.1,0.16,0.12,0.27l0,0.03h0.61l0-0.04c-0.01-0.2-0.07-0.38-0.19-0.54
		c-0.11-0.15-0.27-0.28-0.46-0.36c-0.2-0.09-0.43-0.13-0.69-0.13c-0.26,0-0.49,0.04-0.69,0.13c-0.2,0.09-0.36,0.21-0.47,0.37
		c-0.11,0.16-0.17,0.35-0.17,0.56v0c0,0.27,0.09,0.49,0.26,0.65c0.18,0.17,0.44,0.29,0.79,0.36l0.39,0.08
		c0.23,0.05,0.4,0.11,0.5,0.19c0.1,0.08,0.15,0.18,0.15,0.32v0c0,0.1-0.03,0.19-0.09,0.27c-0.06,0.08-0.15,0.14-0.26,0.18
		c-0.11,0.04-0.24,0.06-0.39,0.06c-0.15,0-0.28-0.02-0.4-0.06c-0.12-0.04-0.21-0.1-0.28-0.17c-0.07-0.07-0.12-0.16-0.13-0.27
		l-0.01-0.03h-0.61l0,0.04c0.02,0.21,0.08,0.4,0.2,0.55c0.12,0.15,0.28,0.27,0.49,0.36c0.21,0.08,0.45,0.12,0.72,0.12
		C61.9,24.36,62.15,24.31,62.36,24.22z"/>
	<rect x="63.5" y="20.69" class="st0" width="0.64" height="3.6"/>
	<polygon class="st0" points="65.41,21.76 65.43,21.76 67.19,24.29 67.76,24.29 67.76,20.69 67.12,20.69 67.12,23.22 67.11,23.22 
		65.35,20.69 64.78,20.69 64.78,24.29 65.41,24.29 	"/>
	<path class="st0" d="M69.07,24.13c0.25,0.15,0.55,0.23,0.9,0.23c0.28,0,0.52-0.05,0.74-0.16c0.22-0.11,0.4-0.25,0.54-0.44
		c0.14-0.19,0.22-0.4,0.25-0.65l0-0.03h-0.63l-0.01,0.02c-0.04,0.15-0.1,0.27-0.18,0.38c-0.08,0.1-0.19,0.18-0.31,0.24
		c-0.12,0.05-0.26,0.08-0.41,0.08c-0.21,0-0.39-0.05-0.55-0.16c-0.16-0.11-0.28-0.26-0.36-0.45c-0.08-0.2-0.13-0.43-0.13-0.69v0
		c0-0.27,0.04-0.5,0.13-0.69c0.08-0.19,0.2-0.34,0.36-0.45c0.15-0.11,0.34-0.16,0.55-0.16c0.16,0,0.3,0.03,0.42,0.08
		c0.12,0.05,0.22,0.13,0.3,0.23c0.08,0.1,0.14,0.22,0.17,0.36l0.01,0.05h0.63l0-0.03c-0.03-0.24-0.12-0.46-0.25-0.65
		c-0.14-0.19-0.32-0.34-0.54-0.44c-0.22-0.11-0.47-0.16-0.74-0.16c-0.34,0-0.64,0.08-0.9,0.23c-0.25,0.15-0.45,0.36-0.59,0.64
		c-0.14,0.28-0.21,0.61-0.21,0.99v0c0,0.38,0.07,0.71,0.21,0.99C68.62,23.76,68.82,23.98,69.07,24.13z"/>
	<polygon class="st0" points="74.32,23.75 72.64,23.75 72.64,22.72 74.23,22.72 74.23,22.2 72.64,22.2 72.64,21.23 74.32,21.23 
		74.32,20.69 71.99,20.69 71.99,24.29 74.32,24.29 	"/>
	<g>
		<polygon class="st0" points="56.58,27.95 56.58,29.65 58.27,28.53 58.31,28.53 58.31,33.69 60.34,33.69 60.34,26.79 58.31,26.79 
					"/>
		<path class="st0" d="M66.56,27.66c-0.26-0.32-0.59-0.56-0.98-0.73c-0.39-0.17-0.84-0.26-1.36-0.26c-0.55,0-1.04,0.11-1.48,0.32
			c-0.43,0.21-0.77,0.5-1.02,0.87c-0.25,0.37-0.37,0.8-0.37,1.29v0.01c0,0.42,0.09,0.8,0.27,1.13c0.18,0.33,0.44,0.59,0.77,0.78
			c0.33,0.19,0.72,0.28,1.17,0.28c0.31,0,0.59-0.05,0.83-0.14c0.24-0.09,0.45-0.22,0.62-0.39c0.17-0.17,0.3-0.36,0.39-0.58h0.04
			c0,0.06,0,0.12,0,0.19c0,0.06,0,0.13-0.01,0.19c-0.02,0.33-0.08,0.62-0.17,0.87c-0.09,0.25-0.22,0.45-0.38,0.59
			c-0.16,0.14-0.37,0.21-0.61,0.21c-0.14,0-0.26-0.02-0.37-0.06c-0.11-0.04-0.2-0.1-0.28-0.17c-0.08-0.07-0.14-0.15-0.18-0.24
			l-0.01-0.03h-1.97l0,0.03c0.06,0.38,0.22,0.72,0.48,1.02c0.26,0.3,0.58,0.54,0.98,0.72c0.4,0.18,0.85,0.27,1.35,0.27
			c0.64,0,1.19-0.14,1.65-0.43c0.46-0.29,0.82-0.7,1.08-1.23c0.25-0.53,0.38-1.17,0.38-1.9v-0.01c0-0.53-0.07-1.01-0.2-1.45
			C67.02,28.36,66.82,27.98,66.56,27.66z M65.2,29.09c0,0.18-0.04,0.33-0.13,0.46c-0.09,0.13-0.2,0.24-0.35,0.31
			c-0.15,0.08-0.31,0.11-0.49,0.11c-0.17,0-0.33-0.04-0.47-0.11c-0.14-0.07-0.26-0.18-0.34-0.32c-0.09-0.14-0.13-0.29-0.13-0.47
			v-0.01c0-0.17,0.04-0.31,0.13-0.44c0.09-0.13,0.2-0.23,0.35-0.31c0.15-0.08,0.31-0.11,0.48-0.11c0.18,0,0.34,0.04,0.49,0.11
			c0.15,0.08,0.26,0.18,0.34,0.31C65.16,28.76,65.2,28.91,65.2,29.09L65.2,29.09z"/>
		<polygon class="st0" points="67.56,28.32 70.87,28.32 70.87,28.36 68.05,33.69 70.17,33.69 72.86,28.32 72.86,26.79 67.56,26.79 
					"/>
		<path class="st0" d="M75.92,32.16v-0.04l1.25-1.01c0.37-0.3,0.67-0.57,0.9-0.8c0.23-0.24,0.39-0.47,0.5-0.71
			c0.11-0.24,0.16-0.51,0.16-0.82v-0.01c0-0.42-0.11-0.79-0.34-1.11c-0.23-0.31-0.55-0.56-0.96-0.73c-0.41-0.17-0.9-0.26-1.46-0.26
			c-0.54,0-1.02,0.1-1.44,0.29c-0.41,0.2-0.74,0.47-0.97,0.82c-0.23,0.35-0.35,0.76-0.35,1.23v0.05h1.85l0-0.06
			c0.01-0.17,0.06-0.31,0.13-0.44c0.07-0.13,0.18-0.22,0.31-0.29c0.13-0.07,0.29-0.11,0.47-0.11c0.16,0,0.3,0.03,0.42,0.09
			c0.12,0.06,0.22,0.15,0.28,0.26c0.07,0.11,0.1,0.23,0.1,0.38v0.01c0,0.13-0.02,0.25-0.07,0.38c-0.05,0.12-0.15,0.26-0.29,0.42
			c-0.14,0.16-0.35,0.35-0.64,0.59l-2.45,2.03v1.38h5.48v-1.53H75.92z"/>
	</g>
</g>
</svg>
